<svg fill="none" height="48" viewBox="0 0 214 48" width="214" xmlns="http://www.w3.org/2000/svg"><path d="m4.80224 14.6542c-.40106 2.591-2.00268 4.4348-4.80224 5.5327v-.1495c1.5007-.8972 2.40112-1.846 2.70126-2.8411-1.4024.0987-2.25105.3484-2.55119.7476.199218-1.1962.548506-2.0445 1.05049-2.542.19922-.2008 1.39978-.4486 3.60168-.7477zm72.63396 7.9252c0 1.4954-.3002 2.7896-.9004 3.8871-.6003 1.295-1.5007 1.9443-2.7013 1.9443-.8017 0-1.402-.0519-1.8008-.1491v1.4953c0 1.9929-.251 3.2381-.7504 3.7383-4.0027 4.584-7.7545 6.8785-11.2553 6.8785-1.5007 0-2.6521-.6987-3.4516-2.0938-.7012-1.0983-1.0505-2.3439-1.0505-3.7383 0-2.2946.5485-5.1353 1.6508-8.5234-1.2005.8968-3.2032 2.7406-6.0028 5.5327-3.1023 2.9907-5.3534 5.0845-6.7531 6.2804-2.603 1.9933-4.704 2.9907-6.303 2.9907-1.2006 0-2.251-.5746-3.1515-1.7197-.9004-1.1469-1.3506-2.4676-1.3506-3.963 0-1.7947.6003-4.0889 1.8008-6.8781-.2018.098-.4502.1492-.7503.1492-.7012 0-1.3015-.052-1.8008-.1492v1.4953c0 1.9929-.2019 3.1888-.6003 3.5888-4.704 4.5843-8.5049 6.8785-11.4054 6.8785-1.5007 0-2.6521-.5985-3.4516-1.7951-.8017-1.1955-1.2005-2.6419-1.2005-4.3365 0-.5981.2483-1.9203.7503-3.9626.4994-2.0448.7504-3.8131.7504-5.3084 0-1.1963-.1501-2.3439-.4502-3.4392-1.2006-.2991-2.4012-1.1473-3.6017-2.5421-1.2006-1.397-2.0023-2.0938-2.4011-2.0938-.5017 0-1.30152.8463-2.40116 2.5424-.80213 1.2942-1.5007 2.591-2.10098 3.8875 2.3002 1.1962 3.45164 3.7873 3.45164 7.7753h-.75038c-1.10189-.4983-2.15276-1.0449-3.15148-1.643-1.00096-.6983-1.5007-1.7454-1.5007-3.1398-2.30245 1.0961-3.45161 2.5914-3.45161 4.486 0 .1985.97546 2.4904 2.92637 6.8781 1.95091 4.3851 2.92637 7.874 2.92637 10.4673h-.30014c-.20185-1.5963-1.35064-4.5376-3.45162-8.8232-1.90176-3.9876-2.85133-6.8777-2.85133-8.6721 0-2.5937 1.54985-4.9862 4.65217-7.1776.39882-1.2968 1.39978-3.0419 3.00141-5.2336 1.80084-2.5937 3.25014-3.8879 4.35204-3.8879.3988 0 1.3506.8972 2.8513 2.6916-.2018-.5002-.3001-.9978-.3001-1.4953 0-1.2969.4502-2.3926 1.3506-3.2897.9004-.8972 2.0001-1.3462 3.3016-1.3462.999 0 2.95.4725 5.8527 1.4209 2.9005.9458 5.4517 1.4206 7.6536 1.4206l-1.8009 2.9906c-1.402.1985-3.6531 1.0957-6.7531 2.6916-2.7013 1.3944-4.9523 2.0935-6.7532 2.0935-.1009 0-.3001 0-.6003 0 .4998 1.3947.7504 2.8901.7504 4.486 0 1.2945-.176 2.7409-.5253 4.3364-.3519 1.5944-.5252 2.4908-.5252 2.692 0 3.1891 1.2989 4.7846 3.9018 4.7846 1.8995 0 4.1011-.9973 6.6031-2.9906 1.599-1.2968 3.0997-2.6419 4.5021-4.037 0-.6987-.4011-1.7948-1.2006-3.2901-.401-.8972-.8512-1.7944-1.3506-2.6912l1.0505-2.5421c.9004 1.3948 1.5499 2.341 1.9509 2.8408.699.6964 1.4493 1.0474 2.2511 1.0474.9991 0 1.8008-.3992 2.4011-1.1962 0-1.4953-.1009-2.9417-.3001-4.3368l-2.5512-15.85014c-.101-.99551-.3002-1.74318-.6003-2.24299l.7503-2.093831 2.7013 4.934201v.8972l-1.3506-1.34579c-.101.20112-.101.39962 0 .5985l2.251 15.10245c.0983.3974.1501 1.0964.1501 2.0938 0 2.9907-.8021 4.834-2.4011 5.5327-1.0014 2.1918-1.5007 4.1357-1.5007 5.8318 0 .8972.3492 1.7432 1.0504 2.5428.7995.8968 1.7495 1.3458 2.8514 1.3458 1.8008 0 4.101-1.3458 6.9032-4.0374 2.4998-2.2946 5.0018-4.6351 7.5035-7.028 1.8995-1.5967 3.7518-2.9417 5.5526-4.0378-.502-.2004-1.2523-.7476-2.251-1.6445-1.4025-1.0983-2.101-2.3439-2.101-3.7383 0-2.2942 1.2497-3.4392 3.7517-3.4392 4.8023 0 10.0033.8456 15.6073 2.542l-1.9509 2.9907c-1.8008.5985-5.0532 1.8927-9.7546 3.8878.4994.797 1.0505 2.6916 1.6508 5.6823-2.7012 0-4.0519-.7997-4.0519-2.3926 0-.2007.0492-.5491.1501-1.0467.0987-.4998.1501-.8486.1501-1.0467-.4011.299-1.001.6957-1.8009 1.1955-1.0013 3.1892-1.5007 5.5824-1.5007 7.1779 0 3.1892 1.3507 4.7847 4.0519 4.7847 2.9005 0 6.6031-2.3432 11.1052-7.0276-.1009-.6987-.5016-1.7948-1.2006-3.2901-.5016-.7989-.9518-1.6449-1.3506-2.5421l.9004-2.6916c.9005 1.4953 1.599 2.4415 2.101 2.8408.6003.6964 1.3506 1.0474 2.2511 1.0474.9987 0 1.8008-.3992 2.4011-1.1962-.1009-1.4953-.251-2.9417-.4502-4.3368l-2.4011-15.70098c-.2019-1.0957-.4011-1.89271-.6003-2.39215l.7503-2.093831 2.5512 4.934581v.89719l-1.2005-1.34616c-.101.29944-.101.54953 0 .74766l2.251 14.95329c.0987.397.1501 1.0957.1501 2.0934zm-67.0814-13.30837c0 1.69387-.55109 2.54247-1.65073 2.54247-1.00135 0-1.5007-.5496-1.5007-1.6449 0-.69869.15007-1.5443.45021-2.54206.60028-1.19626.90042-1.89271.90042-2.09383.19921.79963.24874 1.34617.15007 1.64486 1.09964.59813 1.65073 1.29682 1.65073 2.09346zm-.45017.59813c-.40106-.49981-1.00097-.8486-1.80084-1.04673-.40107.39738-.60028.64673-.60028.74766 0 .59811.34928.89721 1.05049.89721.49935 0 .94957-.2011 1.35063-.59814zm4.05187 24.67294-1.0505 1.6441c-.6003.1985-1.2519.3488-1.9509.4489-1.10225.3974-1.65075.846-1.65075 1.3462.49973 1.9929.75035 3.388.75035 4.1866 0 1.7947-.0514 2.8414-.15007 3.1398 0-1.0984-.20185-2.5421-.60028-4.3365-.40069-1.7951-.60028-2.9417-.60028-3.4392 0-.8969.3234-1.4954.97545-1.7944.64948-.2998 1.27558-.5496 1.87588-.7477-.4007-.2998-.7504-.4486-1.0505-.4486l-.90041.7477v-.7477c.30014-.3996.54851-.7734.75031-1.1215.1993-.3506.4502-.523.7504-.523.6003.0004 1.5498.5469 2.8513 1.6453zm1.2006-7.4767-1.2006 2.3918-2.5512-1.1955.9004-2.0935-2.251-1.1966 1.0505-2.3918 2.7013 1.1963-1.0505 2.0931zm12.7559-11.514c-.6002-.1009-2.0023-.4486-4.2019-1.0471-1.8009-.5978-3.2033-.8968-4.202-.8968-2.3028 0-3.4516.846-3.4516 2.542 0 .6961.2487 1.3948.7504 2.0935.3988.3974.9004.5985 1.5007.5985 1.3997 0 3.0014-.3996 4.8022-1.1963 2.9005-1.2972 4.5021-1.9959 4.8022-2.0938zm1.3507 11.3645c-1.5007 3.7873-3.4025 5.6822-5.7027 5.6822-1.7022 0-2.5512-.7988-2.5512-2.3925 0-1.2968 1.0997-2.6419 3.3016-4.037-.4007-.2994-.8018-.449-1.2006-.449-.5016 0-1.0013.2479-1.5007.7477v-.5981c.4994-1.0984 1.2006-1.6449 2.101-1.6449 1.5007 0 2.7012.1985 3.6017.5989l-1.8009 1.6437c-.7012.1985-1.4774.6475-2.3261 1.3466-.8512.696-1.2756 1.2942-1.2756 1.7943 0 .8972.7995 1.3458 2.4012 1.3458 1.1 0 2.1996-.5981 3.3015-1.794.4994-.8 1.0505-1.5476 1.6508-2.2437zm2.7012-20.33646c0 1.19589-.401 1.79439-1.2005 1.79439-.4011 0-.8022-.1985-1.2006-.5985-.3001.79962-.7503 1.19626-1.3506 1.19626-.7012 0-1.0505-.4486-1.0505-1.3458 0-.5985 0-1.19626 0-1.79439-.2019.20112-.4502.49981-.7504.89682v-.59813c.1993-.49757.699-1.14504 1.5007-1.94392-.3001 2.09346-.1009 3.14018.6003 3.14018.4994 0 .7504-.34841.7504-1.0471 0-.29906-.1009-.89682-.3002-1.79439l.4502-.89607c.3002.49981.4998 1.24747.6003 2.24299 0 .69869.2488 1.04672.7504 1.04672.3001 0 .4502-.24785.4502-.74766l-.4502-1.94392.6003-1.04673c.3988 1.29682.6002 2.44411.6002 3.43925zm8.554 25.71966c-.1009 1.3944-.6002 2.0938-1.5007 2.0938-.9004 0-1.3506-.449-1.3506-1.3462 0-1.2968.699-2.7921 2.101-4.486-.7012 1.5937-1.0505 2.7406-1.0505 3.4393 0 .6957.2484 1.0467.7503 1.0467.4994 0 .7995-.2501.9005-.7476zm3.0014-8.6729c0 2.0931-.251 3.6871-.7503 4.785h-.3002c.0983-2.194 0-4.486-.3001-6.8781l-2.7013-16.89721c-.1009-.99552-.3001-1.74318-.6002-2.24299l.7503-2.093835 2.5512 4.934575v.8972l-1.2006-1.34617c-.1009.20112-.1009.39963 0 .59851l2.4012 16.00002c.0983.4975.15 1.2452.15 2.243zm6.7532-18.69162c0 .39925-.1501.8486-.4502 1.34579-.3002-.29906-.5512-.44822-.7504-.44822-.5016 0-.9004.69869-1.2005 2.09346-.2019.89719-.3519 1.89271-.4502 2.99069-.3002-.7993-.8018-1.84602-1.5007-3.14023-.101.50057-.4011.74767-.9005.74767-.8021 0-1.2005-.44823-1.2005-1.3458 0-1.09607.3496-1.64486 1.0505-1.64486.9004 0 1.6999 1.04711 2.4011 3.14019.6003-3.58878 1.3506-5.38318 2.251-5.38318.4994-.00037.7504.54879.7504 1.64449zm.1501 8.37382c-.4011 2.6912-1.951 4.535-4.6522 5.5327l-.1501-.1495c1.5007-.8968 2.4011-1.846 2.7013-2.8411-1.4021.0983-2.2511.348-2.5512.7476.1992-1.1962.5485-2.0445 1.0505-2.542.1992-.2008 1.3998-.4486 3.6017-.7477zm-.1501 9.271-1.2006 2.3918-2.5512-1.1955 1.2006-2.3925zm2.7013 16c0 1.3948-.502 2.0939-1.5008 2.0939-.9004 0-1.3506-.4483-1.3506-1.3462 0-1.2968.6986-2.7921 2.101-4.486h.1501c-.8022 1.5937-1.2006 2.741-1.2006 3.4393 0 .6961.2487 1.0467.7504 1.0467.4997 0 .7995-.2497.9004-.7477zm2.7012-31.99996c0 1.19589-.2506 2.54206-.7503 4.03736.0986-.79886.15-1.69381.15-2.69157 0-1.79439-.5511-3.18916-1.6507-4.18691l.15-1.79439c.699.39925 1.2242 1.09831 1.5758 2.09345.3493.99776.5252 1.84561.5252 2.54206zm12.4558 11.81306c-2.8021-1.1962-6.0545-1.7944-9.7545-1.7944-1.8009 0-3.0014.1985-3.6017.5982 0 .1985.6494.7712 1.9509 1.72 1.2989.9458 2.4011 1.8691 3.3015 2.7659 2.101-.9977 4.8023-2.0934 8.1038-3.2897zm3.3016-16.89717c0 .5985-.176 1.29719-.5253 2.09383-.3519.79888-.7762 1.39663-1.2756 1.79439.6003-1.19626.9005-2.04187.9005-2.54205-5.1024 1.59588-9.7546 4.28747-13.9566 8.0748.0987-.5002.1993-.9978.3002-1.49537 1.6999-1.69383 3.9768-3.28971 6.8282-4.78504 2.8513-1.4957 5.4261-2.54243 7.7286-3.14056zm-3.7518 26.31777c.1992.797 0 1.2452-.6003 1.3462-.3001.0983-.7503-.101-1.3506-.5986-.401.6961-1.0505 1.6442-1.9509 2.8415-1.1023 1.2942-2.5512 2.0939-4.352 2.3922l-1.3507.2991c1.3998-.6987 2.95-1.6961 4.6522-2.9907 1.3998-1.0983 2.3494-2.194 2.8513-3.2897.3989-.7993.7504-1.2475 1.0505-1.3466.4994-.0994.8487.3488 1.0505 1.3466zm1.2006-17.7944c0 1.1963-.4011 1.7948-1.2006 1.7948-.401 0-.8017-.2501-1.2005-.7477-.3002.7966-.7504 1.1959-1.3507 1.1959-.6002 0-.9522-.3989-1.0505-1.1959 0-.6987 0-1.34617 0-1.94393-.2014.29906-.4006.59813-.6002.89683v-.44861c.0983-.49981.5485-1.14504 1.3506-1.94392-.3001 1.99327-.1009 2.99063.6003 2.99063.4997 0 .7503-.299.7503-.89717 0-.29907-.1009-.9458-.3001-1.94393l.6003-.74766c.1992.39962.3493 1.09832.4502 2.09383 0 .69645.2487 1.04673.7503 1.04673.3002 0 .4502-.20112.4502-.59813 0-.10094-.15-.74767-.4502-1.94393l.6003-1.19626c.3988 1.29645.6003 2.49271.6003 3.58842zm-1.5007 18.243c-.4011-.5985-.8513-.7477-1.3506-.4486.6002.397 1.0504.5465 1.3506.4486zm13.6564 6.1308c0 .9952-.3002 1.4954-.9005 1.4954-.401 0-.8512-.1492-1.3506-.449-1.7025 3.0897-4.854 4.585-9.4544 4.486h-.1501v-.1492c4.5021-1.0983 7.5527-2.6426 9.1543-4.6351-.5016-.2012-.7503-.5002-.7503-.8969 0-.2998.15-.6497.4502-1.0474.3001-.3989.5485-.5982.7503-.5982l-.1501-.5981.1501-.1495c.1992 0 .5485.1985 1.0505.5981v.1495c.7995.8972 1.2006 1.4954 1.2006 1.7944zm1.6507-10.7663c0 2.0931-.2506 3.6871-.7503 4.785h-.3002c.0983-2.194-.0517-4.486-.4502-6.8781l-2.5512-16.89721c-.2018-.99552-.401-1.74318-.6002-2.24299l.7503-2.093835 2.5512 4.934575v.8972l-1.2006-1.34617c-.1009.20112-.15.39963-.15.59851l2.5512 16.00002c.0986.4975.15 1.2452.15 2.243zm-3.3015 10.0187c0-.2012-.1009-.2995-.3001-.2995-.4007 0-.7013.1496-.9005.4486.1992.2991.4998.4976.9005.5985 0-.1009.0491-.2246.15-.3738.0983-.1495.1501-.2759.1501-.3738zm134.6129-5.5328c0 1.3948-.326 2.5425-.976 3.4393-.652.8965-1.376 1.3458-2.176 1.3458-1.501 0-2.551-.9488-3.151-2.8415-.401 1.8927-1.252 2.8415-2.552 2.8415-1.2 0-2.002-.7996-2.4-2.3922-.802 1.8928-2.202 2.8412-4.202 2.8412-.701 0-1.275-.2755-1.726-.8221-.45-.5491-.676-1.1734-.676-1.8691 0-.2995 0-.5492 0-.7477-14.106 4.385-28.513 6.5798-43.22 6.5798-7.105 0-14.057-.5985-20.86-1.7951-6.504-.9974-11.356-2.3432-14.556-4.037 0 1.3943-.053 2.7895-.151 4.1865h-.299c-1.201-.7989-1.951-1.7451-2.251-2.8411-.101-.7997-.176-1.5473-.225-2.243-.053-.6987-.677-1.0475-1.876-1.0475-1.103 0-2.978 1.5944-5.628 4.7858-2.652 3.1888-4.678 4.785-6.078 4.785-.802 0-1.5005-.3738-2.1008-1.1214-.6003-.7477-.9004-1.7709-.9004-3.0655 0-.6987.1501-1.5465.4502-2.542-.5016.1985-1.001.299-1.5007.299-2.0023 0-3.3015-1.3458-3.9018-4.0373-.2019 3.2897-1.7026 4.9345-4.5021 4.9345-1.2006 0-2.101-.6497-2.7013-1.9439-.4007-.9977-.5511-2.1447-.4502-3.4392 0-.2008.0983-.8972.3001-2.0935.0987-.9978.1501-1.895.1501-2.6916-.7012.9955-1.2006 2.2924-1.5007 3.8871-.2015 1.0965-.4007 2.1918-.6003 3.2905-.401 1.7944-1.0505 2.6908-1.9509 2.6908-.7012 0-1.3015-.5742-1.8008-1.7196-.502-1.1469-.7504-2.3693-.7504-3.6636 0-1.397.0983-2.9413.3002-4.6355l.3001.1496c-.1009.7966-.1501 1.5936-.1501 2.3917 0 3.3881.699 5.0849 2.101 5.0849.4994 0 .9496-.7477 1.3506-2.243.6986-2.4931 1.0997-3.9394 1.2006-4.3368.699-1.6957 1.5994-2.8411 2.7013-3.4389v1.9436c-.4011 2.5914-.6003 4.1873-.6003 4.7854 0 2.191.7995 3.2897 2.4011 3.2897.9991 0 1.8759-.3996 2.6262-1.1963.7504-.7988 1.1256-1.745 1.1256-2.8411l-1.0505-5.8314.7503-2.0934c.4994.9955.7995 1.7943.9004 2.3921.3002 1.6938.5486 3.4393.7504 5.2337.6003 2.4908 1.6999 3.7383 3.3015 3.7383.9988 0 1.7-.3989 2.101-1.1955-.5016-1.0984-1.001-2.1941-1.5007-3.2905-.7012-1.794-1.1022-3.191-1.2005-4.1862l-.4503-1.0471.6003-2.0934 2.101 3.2897v.7476c-.3001-.2011-.6003-.4486-.9004-.7476-.1009.1985-.1009.299 0 .299 1.3998 3.1892 2.1012 5.3832 2.1012 6.5799 0 1.7944-.4009 2.9906-1.2008 3.5891-.3001.9952-.4502 1.7428-.4502 2.243 0 1.3944.699 2.0938 2.101 2.0938 1.299 0 3.25-1.6216 5.853-4.8598 2.6-3.2407 4.652-4.8598 6.153-4.8598.499 0 1.2.2991 2.101.8968l.75-1.7947c1.4 1.9929 5.553 3.8359 12.456 5.5323 7.902 1.794 16.958 2.6912 27.162 2.6912 6.903 0 14.505-.5981 22.811-1.7944 7.203-1.0983 13.706-2.4441 19.509-4.0374-.201.2991-.3.6464-.3 1.0468 0 .5985.199 1.145.6 1.6441.399.4979.849.7476 1.352.7476.998 0 2.049-.4998 3.15-1.4953l1.951-1.9428.15.1496v.5985c0 1.394.5 2.0934 1.501 2.0934.499 0 1.051-.4482 1.65-1.3458.699-1.1962 1.201-1.8946 1.501-2.0938h.15v.5985c0 .7966.274 1.5189.825 2.1682.549.6467 1.074.972 1.576.972.999 0 1.501-.3993 1.501-1.1967 0-.8964-.751-2.6908-2.251-5.3824-1.602-2.8923-2.453-4.6355-2.552-5.2336-.1-.2012-.25-.4748-.45-.8225-.201-.3506-.3-.5749-.3-.6729l.45-2.2429 3.002 3.1398v.5977l-1.351-.5985v.2995c.8 1.1958 1.599 2.3921 2.401 3.5887 1.401 2.4905 2.102 4.486 2.102 5.9813zm-133.4123 6.729c-.2015-.2007-.5017-.5491-.9005-1.0467l-.3001.7477c.3001.1985.6003.299.9004.299zm17.8583-34.8411c0 .499813-.2019 1.14729-.6003 1.94393-.4007.79887-.8017 1.44635-1.2005 1.94392.6002-1.19626.9004-2.09383.9004-2.69159-6.2047 1.99514-11.4571 4.93458-15.7574 8.82244 0-.49982.0987-1.04674.3002-1.64449 1.6999-1.59328 4.3006-3.28972 7.8036-5.08449 3.3016-1.69383 6.1529-2.789907 8.554-3.28972zm-6.3029 34.9907c0 .4975-.2019.9951-.6003 1.4953-.2019-.2998-.4502-.4486-.7504-.4486-.5016 0-.9004.6467-1.2005 1.9439-.101.9951-.2507 1.9929-.4502 2.9907-.2019-.6987-.7012-1.7455-1.5007-3.1402-.101.5981-.352.8972-.7504.8972-.9004 0-1.3506-.5002-1.3506-1.4954 0-.9977.3988-1.4953 1.2005-1.4953.7995 0 1.599 1.0467 2.4012 3.1398.4993-3.5891 1.2497-5.3828 2.251-5.3828.4994 0 .7504.4976.7504 1.4954zm.3001-22.1309c0 1.1963-.4502 1.7944-1.3506 1.7944-.3002 0-.7012-.2501-1.2006-.7477-.2018.7967-.6521 1.1963-1.3506 1.1963-.6003 0-.9522-.3996-1.0505-1.1963 0-.6986 0-1.3458 0-1.9439-.2019.2991-.4011.5985-.6003.8972v-.5981c.1992-.3989.6494-.9974 1.3506-1.7944-.2018 1.9929 0 2.9906.6003 2.9906.4997 0 .7504-.3506.7504-1.0467 0-.2011-.101-.7992-.3002-1.7944l.6003-.74764c.3001.39734.4502 1.09574.4502 2.09344.0987.6961.3988 1.0467.9004 1.0467.3002 0 .4502-.2003.4502-.5981 0-.1005-.15-.7476-.4502-1.9439l.4502-1.19627c.4994 1.29457.7504 2.49047.7504 3.58877zm3.7517-1.6448c0 1.1962-.2506 2.542-.7503 4.0373.0987-.7988.1501-1.6957.1501-2.6912 0-1.7947-.5512-3.19175-1.6508-4.18689l.1501-1.94393c.6002.49981 1.1 1.24748 1.5007 2.24299.3984.99477.6002 1.84303.6002 2.54173zm8.1041 12.4112c0 2.0931-.202 3.6871-.601 4.785h-.3c.099-2.194-.051-4.486-.45-6.8781l-2.551-16.89721c-.202-.99552-.4012-1.74318-.6004-2.24299l.7504-2.093835 2.551 4.934575v.8972l-1.2-1.34617c-.101.20112-.15.39963-.15.59851l2.551 16.00002zm9.604 10.3174c.099.8972-.101 1.3951-.6 1.4953-.3 0-.802-.2004-1.501-.5982-.4.6965-1.001 1.5937-1.801 2.6916-1.2 1.2942-2.701 2.1421-4.502 2.5421l-1.2.1495c1.299-.5985 2.8-1.5473 4.502-2.8415 1.501-1.1966 2.499-2.3439 3.001-3.4396.399-.7989.699-1.2475.901-1.3458.499.0011.9.4497 1.2 1.3466zm-.9-26.76603c0 .39925-.15.8486-.45 1.34579-.301-.29906-.552-.44822-.751-.44822-.502 0-.9.64897-1.2 1.94356-.202 1.0964-.352 2.0938-.45 2.9906-.202-.6983-.701-1.6957-1.501-2.9906-.101.4979-.401.7477-.9.7477-.802 0-1.2-.4483-1.2-1.34584 0-1.09607.349-1.64486 1.05-1.64486.9 0 1.7 1.0471 2.401 3.1402.6-3.5888 1.351-5.38319 2.251-5.38319.499 0 .75.54916.75 1.64486zm.45 8.22433-1.051 1.6448c-.601.1982-1.252.3974-1.951.5982-1.102.299-1.65.7476-1.65 1.3458.499 1.8927.75 3.2385.75 4.0377 0 1.7944-.052 2.8411-.15 3.1398 0-1.0983-.201-2.5185-.6-4.2613-.4-1.7454-.601-2.8669-.601-3.3645 0-.9977.324-1.6448.976-1.9439.649-.2991 1.275-.5492 1.876-.7477-.502-.2011-.9-.299-1.201-.299.099 0-.201.1981-.899.5981l.149-.7477c.199-.299.425-.6729.676-1.1215.248-.4486.525-.6728.825-.6728.6-.0004 1.55.5977 2.851 1.794zm.15 18.9906c-.4-.5985-.851-.7476-1.351-.4489.5.3973.95.5469 1.351.4489zm3.152-4.0374c-.301-.2007-.751-.6493-1.352-1.3458 0 .4976.125 1.0696.375 1.7197.249.6471.526.9719.826.9719.099-.0003.151-.4486.151-1.3458zm77.136 6.2804c-.502 0-.852-.2994-1.051-.8968-.701.8968-1.351 1.3458-1.951 1.3458-.201 0-.524-.1495-.975-.4482-.45-.2999-.727-.4494-.826-.4494-.502 0-1.451.2998-2.851.8972-1.802.7966-3.253 1.3948-4.353 1.7948-2.201.6957-4.603 1.0463-7.203 1.0463l-.149-.299c2.199 0 4.4-.449 6.603-1.3462 1.2-.3996 2.9-1.1963 5.103-2.3921 1.599-.8969 2.75-1.3462 3.451-1.3462.199 0 .499.1985.9.5985.399.3974.75.5985 1.051.5985.398 0 .849-.5002 1.351-1.4953l.449-.2998c-.101.7973.15 1.1966.751 1.1966.301 0 .601-.5002.9-1.4953l.3-.1492c0 2.0931-.501 3.1398-1.5 3.1398zm11.855-27.21494c0 .39738-.202.89724-.601 1.49534-.3-.3996-.551-.5981-.75-.5981-.502 0-.9.6957-1.201 2.0934-.101.8972-.25 1.8434-.449 2.8411-.301-.6983-.803-1.6957-1.501-2.9906-.102.4979-.401.7476-.9.7476-.803 0-1.201-.4482-1.201-1.3457 0-1.0984.35-1.6449 1.051-1.6449.9 0 1.699 1.0471 2.401 3.1402.6-3.58881 1.35-5.3832 2.251-5.3832.6 0 .9.54916.9 1.64486zm-1.2 11.51404c0 1.7944-.552 2.6916-1.651 2.6916-1.002 0-1.501-.5492-1.501-1.6449 0-.6983.199-1.5465.601-2.542.6-1.1963.9-1.8946.9-2.0935.199.7966.249 1.3458.15 1.6445.999.5985 1.501 1.2456 1.501 1.9443zm-.451.7476c-.4-.4998-1.001-.8968-1.8-1.1962-.301.4979-.451.797-.451.8972 0 .4975.35.7476 1.051.7476.499 0 .9-.1495 1.2-.4486zm7.504 14.2057-1.051 2.3921-2.551-1.3465 1.051-2.3918z" fill="#fff"/></svg>