<svg fill="none" height="102" width="309" xmlns="http://www.w3.org/2000/svg">
    <path clip-rule="evenodd" d="M307.374 101.05a6.04 6.04 0 0 0 .232-1.6c0-2.34-1.3-4.314-3.109-5.068 0-.027.006-.052.006-.08 0-.797-.443-1.47-1.061-1.728l-.225-.79a.476.476 0 0 0 .071-.246.457.457 0 0 0-.229-.406l-.141-2.487c0-.011-.011-.02-.019-.02-.012 0-.023.008-.023.02l-.141 2.487a.456.456 0 0 0-.231.406c0 .093.031.176.075.248l-.226.788c-.619.258-1.063.93-1.063 1.728 0 .028.005.053.007.08-1.41.588-2.499 1.918-2.917 3.58v-6.279h.084c.206 0 .371-.19.371-.427v-.242c0-.234-.165-.426-.371-.426h-.504c.023-.16.037-.316.037-.485 0-1.14-.528-2.144-1.318-2.702a4.712 4.712 0 0 1-1.237-1.326.396.396 0 0 0 .101-.268.368.368 0 0 0-.192-.335l-.08-1.444h-.094l-.081 1.444a.367.367 0 0 0-.191.335c0 .105.036.2.099.268-.329.53-.748.98-1.238 1.326-.789.558-1.316 1.561-1.316 2.702 0 .17.014.326.034.485h-.487c-.206 0-.373.192-.373.426v.242c0 .237.168.427.373.427h.072v5.987h-1.209a5.058 5.058 0 0 0 .483-2.14c0-2.6-2.063-4.876-5.155-6.147-2.013-.83-3.728-1.948-5.063-3.246a.894.894 0 0 0 .086-.375c0-.34-.178-.63-.435-.76l-.183-3.28h-.214l-.183 3.28c-.257.13-.438.42-.438.76 0 .138.037.26.088.375-1.223 1.195-2.752 2.218-4.559 3.025a5.213 5.213 0 0 0-.314-1.318c-.27-.726-.817-1.386-1.44-1.984a13.367 13.367 0 0 0-1.829-1.429c.019-.085.056-.213.056-.34 0-.171-.018-.364-.082-.555a1.424 1.424 0 0 0-.41-.533 3.375 3.375 0 0 0-.464-.364l-.01-.319a.265.265 0 0 0 .075-.128c.038-.042.046-.107.046-.17a.506.506 0 0 0-.046-.193.265.265 0 0 0-.102-.107l-.009-.299a.477.477 0 0 0 .056-.085.249.249 0 0 0 .037-.15.44.44 0 0 0-.037-.147c-.02-.044-.047-.065-.074-.087l-.019-.32-.093-2.303c0-.042-.018-.064-.036-.064-.029.022-.048.043-.048.064l-.092 2.303-.009.32a.154.154 0 0 0-.074.087.29.29 0 0 0-.039.148c0 .064 0 .106.028.15a.273.273 0 0 0 .066.084l-.019.3a.25.25 0 0 0-.092.106.377.377 0 0 0-.057.193c0 .063.019.128.047.17.019.064.047.086.084.128l-.018.32a4.023 4.023 0 0 0-.465.363c-.168.149-.325.34-.409.533a1.486 1.486 0 0 0-.074.554c0 .128.028.256.056.341-.557.362-1.226.854-1.829 1.429a8.33 8.33 0 0 0-.856.943c-1.797-5.06-5.999-8.685-10.981-9.005v-.517c0-.187-.133-.34-.295-.34h-.23l-.189-5.437a2.956 2.956 0 0 0 1.68.166c.943-.19 1.726-.804 2.231-1.642a3.176 3.176 0 0 1-1.216.53c-1.858.375-3.636-1.055-3.96-3.191a4.383 4.383 0 0 1 .55-2.906c-1.148.822-1.812 2.39-1.564 4.018.21 1.371 1.019 2.443 2.063 2.943l-.185 5.52h-.235a.27.27 0 0 0-.203.096.352.352 0 0 0-.084.233v.538c-4.619.384-8.547 3.61-10.465 8.167l-.04-6.865h.164c.268 0 .489-.254.489-.557 0-.303-.221-.554-.489-.554h-.164l-.038-7.715h.202c.237 0 .435-.22.435-.49 0-.232-.14-.429-.326-.483v-2.31h.17c.125 0 .225-.116.225-.258 0-.138-.1-.25-.225-.25h-.21c.125-.415.273-1.208-.034-2.016-.144-.374-.439-.73-.765-1.044a6.97 6.97 0 0 0-.971-.749.68.68 0 0 0 .031-.192.683.683 0 0 0-.26-.575 1.708 1.708 0 0 0-.245-.182l-.008-.175a.208.208 0 0 0 .043-.062.198.198 0 0 0 .024-.093.176.176 0 0 0-.028-.103c-.007-.027-.031-.045-.05-.063l-.004-.151c.007-.015.023-.032.031-.055a.139.139 0 0 0 .016-.07.154.154 0 0 0-.019-.08.203.203 0 0 0-.043-.055l-.005-.16-.046-1.222c-.004-.017-.011-.026-.027-.026s-.024.013-.024.026l-.046 1.222-.007.16c-.016.02-.032.036-.039.055a.141.141 0 0 0-.005.15c.008.023.02.04.036.055l-.008.151a.205.205 0 0 0-.055.063.222.222 0 0 0 0 .196.2.2 0 0 0 .039.062l-.004.175a2.264 2.264 0 0 0-.244.182.726.726 0 0 0-.218.286.7.7 0 0 0-.043.29c.004.075.016.138.027.191a6.877 6.877 0 0 0-.963.75c-.334.312-.621.669-.769 1.043-.311.808-.155 1.601-.034 2.016h-.253c-.117 0-.217.112-.217.25 0 .142.1.259.217.259h.186v2.31c-.19.05-.333.245-.333.482 0 .27.194.49.427.49h.209L239.382 78h-.17c-.265 0-.482.25-.482.554 0 .303.217.557.482.557h.162l-.021 4.483c-1.666-4.031-6.635-3.599-8.105-.68V82h.069c.179 0 .315-.158.315-.348 0-.22-.136-.378-.315-.378h-.177c.328-.82 1.111-3.472.08-6.155-.398-1.073-1.208-2.052-2.13-2.935-.894-.853-1.896-1.578-2.706-2.115.027-.126.082-.316.082-.504 0-.253-.028-.537-.123-.82-.111-.285-.345-.569-.606-.79a5.028 5.028 0 0 0-.687-.536l-.014-.473a.404.404 0 0 0 .111-.19c.055-.063.068-.158.068-.252a.72.72 0 0 0-.068-.285c-.041-.063-.083-.126-.151-.158l-.014-.442a.724.724 0 0 0 .082-.126.364.364 0 0 0 .055-.22.636.636 0 0 0-.055-.221c-.028-.064-.069-.095-.109-.126l-.028-.473-.138-3.41c0-.063-.027-.095-.054-.095-.042.033-.07.064-.07.096l-.137 3.409-.014.473a.23.23 0 0 0-.109.126.43.43 0 0 0-.056.22c0 .095 0 .158.041.221a.403.403 0 0 0 .097.126l-.029.442a.369.369 0 0 0-.136.158.562.562 0 0 0-.083.285c0 .094.028.189.069.252.028.095.069.126.125.19l-.028.473c-.193.126-.44.315-.687.537-.247.22-.481.504-.605.788a2.215 2.215 0 0 0-.111.82c0 .19.043.379.084.505-.825.538-1.815 1.262-2.707 2.115-.921.883-1.746 1.862-2.145 2.935-1.03 2.683-.233 5.334.082 6.155h-.164c-.179 0-.317.158-.317.378 0 .19.138.348.317.348h.151v.916h-1.483l-.028-16.255h.439c.29 0 .522-.284.522-.6 0-.346-.232-.599-.522-.599h-.439l-.041-8.995h.151c.247 0 .467-.221.467-.505 0-.316-.22-.537-.467-.537h-.166l-.026-7.29h.192c.22 0 .412-.221.412-.474 0-.22-.138-.41-.317-.441v-2.21h.166c.123 0 .206-.095.206-.221 0-.127-.083-.252-.206-.252h-.192c.109-.38.26-1.136-.041-1.894-.138-.347-.413-.695-.715-.978-.303-.315-.647-.537-.921-.726a.511.511 0 0 0 .027-.19.976.976 0 0 0-.042-.253.517.517 0 0 0-.205-.283 1.465 1.465 0 0 0-.235-.158v-.19c.015 0 .029-.03.029-.063.027 0 .027-.031.027-.063 0-.031 0-.064-.027-.094 0-.032-.029-.063-.055-.063v-.158c.026 0 .026-.031.041-.031.014-.033.014-.064.014-.096 0 0 0-.031-.029-.063 0-.031-.013-.031-.026-.031l-.014-.158-.042-1.168s-.013-.032-.028-.032c-.013 0-.027.032-.027.032l-.041 1.168v.158c-.014 0-.041 0-.041.03a5.118 5.118 0 0 0-.027.064c0 .032.013.063.027.096 0 0 .013.03.027.03v.159c-.027 0-.041.031-.054.063a.228.228 0 0 0-.028.094c0 .032.013.063.028.063 0 .032.027.064.04.064l-.013.189a2.641 2.641 0 0 0-.22.158.614.614 0 0 0-.22.283c-.028.096-.028.19-.028.253 0 .095.014.158.028.19-.275.19-.619.41-.922.726-.315.283-.591.63-.728.978-.287.758-.136 1.515-.026 1.894h-.234c-.125 0-.206.125-.206.252 0 .126.081.221.206.221h.165v.6c0 .032 0 .063-.015.094l.015.063v1.453c-.178.03-.316.22-.316.441 0 .253.192.474.411.474h.194l-.028 7.29h-.166c-.246 0-.466.221-.466.537 0 .284.22.505.466.505h.151l-.041 8.995h-.44c-.286 0-.522.253-.522.6 0 .315.236.599.522.599h.428l-.015 9.374h-.784v-3.756h-1.787v-.915h.07c.165 0 .316-.159.316-.348 0-.22-.151-.378-.316-.378h-.165c.315-.82 1.098-3.473.082-6.155-.411-1.073-1.222-2.052-2.143-2.935-.894-.852-1.896-1.579-2.707-2.115.041-.127.068-.315.095-.537 0-.22-.027-.504-.138-.789-.109-.284-.342-.568-.604-.788a5.026 5.026 0 0 0-.686-.537l-.014-.473c.054-.064.096-.094.124-.19a.675.675 0 0 0 .055-.253c0-.095-.028-.19-.055-.283-.056-.064-.096-.126-.165-.158l-.014-.441c.041-.032.069-.096.095-.128a.497.497 0 0 0 .056-.22.653.653 0 0 0-.056-.222c-.027-.062-.081-.094-.122-.125l-.015-.473-.137-3.409c0-.063-.027-.095-.068-.095-.043.032-.069.064-.069.095l-.138 3.409-.013.473a.301.301 0 0 0-.111.125.447.447 0 0 0-.055.221c0 .095.014.159.042.221.028.032.055.096.096.128l-.015.44a.529.529 0 0 0-.15.159.697.697 0 0 0-.069.283c0 .095.027.19.055.253.027.095.082.126.138.19l-.027.473a5.973 5.973 0 0 0-.689.537c-.247.22-.494.504-.603.788a1.9 1.9 0 0 0-.125.79c.014.22.041.41.082.536a20.736 20.736 0 0 0-2.706 2.115c-.922.883-1.731 1.862-2.131 2.935-1.029 2.682-.233 5.334.069 6.155h-.164c-.165 0-.304.158-.304.378 0 .19.139.348.304.348h.164v.915h-1.882v3.756h-1.36v-2.84c.165-.127.303-.316.303-.568 0-.348-.22-.664-.495-.726v-3.505h.261c.177 0 .329-.188.329-.377 0-.222-.152-.379-.329-.379h-.316c.179-.632.411-1.831-.056-3.062-.22-.569-.66-1.105-1.154-1.577a9.271 9.271 0 0 0-1.484-1.137.841.841 0 0 0 .055-.285c0-.157 0-.283-.069-.441a1.22 1.22 0 0 0-.329-.441c-.124-.095-.261-.222-.372-.284v-.253c.028-.032.055-.063.055-.095a.228.228 0 0 0 .041-.126c0-.063-.013-.127-.041-.157-.027-.064-.055-.095-.082-.095v-.253c.014 0 .028-.031.042-.063a.27.27 0 0 0 .027-.126.239.239 0 0 0-.027-.094.39.39 0 0 0-.07-.095v-.252l-.081-1.83c0-.032-.015-.065-.029-.065-.026 0-.041.033-.041.064l-.069 1.83-.013.253c-.028.031-.041.063-.068.095-.014.031-.029.063-.029.094 0 .062.015.095.029.126.013.032.027.063.054.063v.253c-.041 0-.068.031-.082.095a.252.252 0 0 0-.056.157c0 .031.028.094.041.126.015.032.043.063.07.095l-.014.253c-.097.062-.234.19-.371.284a1.426 1.426 0 0 0-.331.44 1.042 1.042 0 0 0-.053.442c0 .095.012.222.027.285-.426.283-.963.662-1.456 1.137-.497.472-.936 1.008-1.156 1.577-.467 1.23-.247 2.43-.055 3.062h-.385c-.177 0-.329.157-.329.379 0 .189.152.377.329.377h.276V71.9c-.276.062-.495.378-.495.726 0 .252.124.44.275.567v2.841h-.021v-.122c-1.177-9.384-6.228-17.166-18.839-22.986-6.486-2.995-9.702-7.066-11.277-10.054 1.51-.758 2.566-2.485 2.566-4.498 0-2.399-1.498-4.392-3.478-4.821l-.07-2.165c.547-.274.93-.898.93-1.626 0-.774-.434-1.426-1.037-1.668l-.167-5.195a9.81 9.81 0 0 0 5.948-.378c2.988-1.159 5.263-3.604 6.537-6.618a10.921 10.921 0 0 1-3.718 2.423c-5.89 2.28-12.283-1.357-14.272-8.122-.985-3.352-.71-6.834.534-9.774-3.389 3.335-4.869 8.81-3.352 13.969 1.258 4.285 4.289 7.31 7.837 8.374l-.275 5.29c-.648.21-1.125.887-1.125 1.699 0 .737.392 1.37.95 1.637l-.111 2.118c-2.079.334-3.68 2.377-3.68 4.856 0 2.101 1.151 3.888 2.767 4.589-1.591 2.98-4.809 6.999-11.23 9.963-11.75 5.423-16.939 12.548-18.544 21.087v-.82a.731.731 0 0 0 .274-.567c0-.347-.219-.663-.494-.725v-3.505h.275c.178 0 .329-.189.329-.377 0-.222-.151-.38-.329-.38h-.385c.193-.631.412-1.83-.055-3.061-.22-.57-.659-1.106-1.155-1.578a10.384 10.384 0 0 0-1.457-1.137 1.51 1.51 0 0 0 .028-.284c.014-.125 0-.284-.054-.442a1.396 1.396 0 0 0-.331-.44c-.137-.095-.274-.222-.37-.285l-.014-.252c.027-.033.055-.064.069-.095.013-.032.041-.095.041-.126a.258.258 0 0 0-.055-.158c-.014-.064-.041-.094-.082-.094v-.253c.027 0 .041-.032.054-.064a.267.267 0 0 0 .028-.125.24.24 0 0 0-.028-.095c-.027-.031-.04-.064-.068-.095l-.014-.252-.069-1.83c0-.031-.014-.064-.041-.064-.014 0-.028.033-.028.064l-.081 1.83v.252a.404.404 0 0 0-.07.095.241.241 0 0 0-.027.095c0 .062.013.095.027.125.014.032.028.064.042.064v.253c-.028 0-.056.03-.082.094-.028.03-.041.094-.041.158 0 .03.013.094.041.126 0 .032.026.063.054.095v.252c-.11.063-.248.19-.371.284-.151.126-.26.284-.33.441-.069.158-.069.285-.069.442 0 .094.027.222.055.284A9.229 9.229 0 0 0 116.753 63c-.495.472-.934 1.009-1.154 1.578-.468 1.23-.235 2.43-.056 3.062h-.316c-.178 0-.329.157-.329.379 0 .188.151.377.329.377h.261V71.9c-.274.062-.495.378-.495.725 0 .252.138.441.303.568v2.84h-1.36v-3.755h-1.883v-.915h.165c.165 0 .303-.159.303-.349 0-.22-.138-.377-.303-.377h-.165c.303-.821 1.099-3.473.069-6.156-.399-1.073-1.208-2.05-2.13-2.934a20.744 20.744 0 0 0-2.706-2.115 2.37 2.37 0 0 0 .082-.537 1.9 1.9 0 0 0-.125-.789c-.109-.284-.355-.568-.603-.789a6.058 6.058 0 0 0-.689-.536l-.027-.473c.056-.064.111-.095.139-.19a.675.675 0 0 0 .054-.253.712.712 0 0 0-.068-.284.531.531 0 0 0-.151-.158l-.014-.44c.041-.033.068-.096.096-.128a.504.504 0 0 0 .042-.22.438.438 0 0 0-.056-.222.296.296 0 0 0-.11-.125l-.013-.474-.139-3.408c0-.032-.026-.064-.068-.095-.041 0-.068.032-.068.095l-.137 3.408-.015.474c-.041.03-.096.063-.123.125a.651.651 0 0 0-.055.221c0 .095.027.158.055.22.027.033.055.096.096.128l-.014.442c-.069.032-.11.094-.165.158-.027.093-.055.188-.055.283 0 .094.028.19.055.253.028.095.07.126.124.19l-.013.473a4.967 4.967 0 0 0-.687.536c-.262.221-.495.505-.604.789a2.18 2.18 0 0 0-.138.789c.027.221.055.41.095.537-.81.536-1.813 1.263-2.707 2.115-.921.883-1.731 1.861-2.143 2.934-1.016 2.683-.233 5.335.082 6.156h-.165c-.165 0-.316.157-.316.377 0 .19.151.349.316.349h.07v.915h-1.787v3.756h-.784l-.014-9.375h.427c.287 0 .522-.284.522-.599 0-.346-.235-.6-.522-.6h-.44l-.04-8.994h.15c.247 0 .467-.221.467-.506 0-.315-.22-.536-.466-.536h-.166l-.028-7.29h.194c.22 0 .411-.221.411-.474 0-.221-.138-.41-.316-.441v-1.453l.015-.063c-.015-.031-.015-.063-.015-.095v-.599h.165c.124 0 .206-.095.206-.221s-.082-.253-.206-.253h-.234c.11-.379.26-1.136-.026-1.893-.138-.347-.413-.695-.728-.978-.304-.316-.647-.537-.922-.726a.5.5 0 0 0 .028-.19c0-.063 0-.157-.028-.253a.615.615 0 0 0-.22-.284 2.88 2.88 0 0 0-.22-.157l-.013-.19c.014 0 .04-.03.04-.063.015 0 .028-.032.028-.063a.223.223 0 0 0-.028-.095c-.013-.031-.026-.063-.054-.063v-.157c.014 0 .028-.032.028-.032.013-.032.026-.063.026-.095l-.026-.064c0-.03-.028-.03-.042-.03v-.159l-.041-1.167s-.013-.032-.026-.032c-.015 0-.028.032-.028.032l-.042 1.167-.014.158c-.014 0-.027 0-.027.031-.028.033-.028.064-.028.064 0 .032 0 .063.013.095.015 0 .015.032.042.032v.157c-.027 0-.055.032-.055.063-.027.031-.027.064-.027.095s0 .063.027.063c0 .032.013.063.028.063v.19c-.069.032-.152.095-.234.157a.518.518 0 0 0-.206.284.969.969 0 0 0-.041.253c0 .095.013.158.027.19-.274.189-.618.41-.92.726-.302.283-.578.63-.716.978-.301.757-.15 1.514-.041 1.893h-.192c-.124 0-.207.126-.207.253s.083.221.207.221h.166v2.21c-.179.03-.317.22-.317.441 0 .253.192.473.412.473h.192l-.026 7.291h-.166c-.247 0-.467.22-.467.536 0 .285.22.506.467.506h.15l-.04 8.995h-.44c-.289 0-.522.253-.522.6 0 .314.233.598.523.598h.439l-.028 16.255h-1.483V82h.151c.179 0 .316-.158.316-.348 0-.22-.137-.379-.316-.379h-.164c.315-.82 1.112-3.471.082-6.154-.4-1.074-1.224-2.052-2.145-2.935-.892-.853-1.881-1.578-2.706-2.115.04-.126.083-.316.083-.504a2.207 2.207 0 0 0-.11-.821c-.125-.284-.358-.568-.606-.789a6.148 6.148 0 0 0-.686-.537l-.028-.472c.055-.064.096-.095.124-.19a.482.482 0 0 0 .07-.253.56.56 0 0 0-.084-.284.365.365 0 0 0-.136-.158l-.028-.442a.388.388 0 0 0 .096-.126c.041-.064.041-.126.041-.221a.436.436 0 0 0-.055-.22.228.228 0 0 0-.11-.127l-.013-.473-.138-3.409c0-.032-.028-.063-.07-.095-.027 0-.054.032-.054.095l-.137 3.41-.028.472a.306.306 0 0 0-.11.126.636.636 0 0 0-.055.221c0 .095.013.157.056.22a.707.707 0 0 0 .082.127l-.014.442c-.068.031-.11.095-.151.158a.725.725 0 0 0-.07.284c0 .094.014.19.07.253a.41.41 0 0 0 .11.19l-.014.472a4.984 4.984 0 0 0-.686.537c-.262.221-.496.505-.606.789a2.567 2.567 0 0 0-.123.82c0 .189.055.379.082.505-.81.537-1.813 1.262-2.707 2.115-.921.883-1.731 1.861-2.13 2.935-1.03 2.683-.248 5.334.081 6.154h-.177c-.179 0-.316.158-.316.38 0 .189.137.347.316.347h.068v.915c-1.47-2.92-6.44-3.352-8.104.68l-.022-4.483h.162c.265 0 .482-.255.482-.557 0-.304-.217-.554-.482-.554h-.17l-.039-7.715h.21c.233 0 .427-.22.427-.49 0-.237-.144-.433-.333-.483v-2.31h.185c.118 0 .218-.116.218-.258 0-.138-.1-.25-.218-.25h-.252c.12-.415.276-1.208-.035-2.016-.147-.375-.434-.731-.768-1.044a6.926 6.926 0 0 0-.963-.75c.011-.052.023-.115.027-.191a.697.697 0 0 0-.043-.29.723.723 0 0 0-.218-.285c-.085-.076-.178-.138-.244-.183l-.004-.174a.198.198 0 0 0 .039-.063.222.222 0 0 0 0-.196.198.198 0 0 0-.055-.062l-.007-.152a.135.135 0 0 0 .035-.054.144.144 0 0 0-.004-.15c-.008-.019-.024-.036-.04-.055l-.007-.16-.046-1.222c0-.013-.008-.026-.024-.026s-.023.009-.027.026l-.047 1.221-.004.161a.2.2 0 0 0-.043.055.15.15 0 0 0-.019.08c0 .026.005.053.016.07.008.023.023.04.03.054l-.003.152c-.02.018-.043.036-.05.063a.183.183 0 0 0-.028.102c0 .032.008.063.024.093a.207.207 0 0 0 .043.063l-.008.174a1.71 1.71 0 0 0-.245.183.682.682 0 0 0-.26.575c0 .076.015.139.03.192a6.955 6.955 0 0 0-.97.749c-.327.313-.621.67-.765 1.044-.307.808-.159 1.601-.035 2.015h-.21c-.124 0-.224.113-.224.251 0 .142.1.258.224.258h.17v2.31c-.186.054-.325.25-.325.482 0 .271.198.491.435.491h.201L65.5 78h-.163c-.268 0-.49.25-.49.554 0 .302.221.557.49.557h.163l-.04 6.865c-1.916-4.558-5.845-7.784-10.465-8.167v-.538c0-.087-.03-.171-.083-.233a.268.268 0 0 0-.203-.096h-.235l-.185-5.52c1.043-.5 1.853-1.572 2.062-2.944.249-1.628-.415-3.195-1.564-4.017.491.817.711 1.848.55 2.906-.324 2.136-2.102 3.565-3.96 3.191a3.172 3.172 0 0 1-1.215-.53c.505.838 1.287 1.451 2.23 1.641.585.119 1.155.04 1.68-.165l-.188 5.437h-.23c-.162 0-.295.153-.295.34v.516c-4.981.321-9.184 3.947-10.98 9.005a8.373 8.373 0 0 0-.857-.943 12.842 12.842 0 0 0-1.828-1.428 1.17 1.17 0 0 0 .056-.34c.008-.172-.01-.364-.075-.555a1.65 1.65 0 0 0-.408-.534 4.112 4.112 0 0 0-.465-.363l-.019-.32c.038-.042.065-.063.085-.128a.326.326 0 0 0 .046-.17.38.38 0 0 0-.056-.193.245.245 0 0 0-.092-.106l-.02-.299a.262.262 0 0 0 .066-.085c.028-.043.028-.085.028-.15a.292.292 0 0 0-.038-.148.157.157 0 0 0-.074-.086l-.01-.32-.092-2.303c0-.021-.019-.042-.047-.064-.018 0-.037.022-.037.064l-.093 2.303-.019.32c-.027.022-.054.043-.073.086a.42.42 0 0 0-.038.148c0 .065.01.107.038.15.009.022.037.065.055.085l-.01.299c-.045.021-.074.064-.101.106a.498.498 0 0 0-.047.193c0 .064.01.128.047.17a.265.265 0 0 0 .075.129l-.01.32a3.34 3.34 0 0 0-.464.362 1.422 1.422 0 0 0-.41.534 1.732 1.732 0 0 0-.082.554c0 .128.036.256.055.34-.547.363-1.225.854-1.829 1.43-.623.597-1.17 1.258-1.44 1.983a5.218 5.218 0 0 0-.313 1.319c-1.808-.807-3.336-1.83-4.56-3.025a.914.914 0 0 0 .088-.376c0-.339-.18-.63-.437-.76l-.183-3.28h-.215l-.183 3.28c-.257.13-.435.421-.435.76 0 .138.034.261.087.376-1.336 1.298-3.051 2.415-5.064 3.245-3.092 1.272-5.156 3.548-5.156 6.148 0 .744.17 1.466.484 2.14h-1.21v-5.987h.072c.205 0 .372-.19.372-.427v-.242c0-.234-.167-.427-.372-.427h-.488c.02-.158.034-.315.034-.484 0-1.14-.526-2.144-1.315-2.703a4.557 4.557 0 0 1-1.239-1.326.392.392 0 0 0 .1-.267.367.367 0 0 0-.19-.335l-.082-1.444h-.094l-.08 1.444a.368.368 0 0 0-.192.335c0 .105.039.2.1.267-.332.528-.752.98-1.236 1.326-.79.559-1.318 1.562-1.318 2.703 0 .169.014.326.037.484h-.504c-.205 0-.37.193-.37.427v.242c0 .237.165.427.37.427h.084v6.278C10.37 96.3 9.28 94.97 7.87 94.381c.002-.026.007-.052.007-.079 0-.799-.443-1.47-1.063-1.729l-.226-.788a.47.47 0 0 0 .076-.247.457.457 0 0 0-.231-.406l-.141-2.487c0-.011-.012-.02-.024-.02-.008 0-.018.008-.018.02l-.141 2.487a.457.457 0 0 0-.23.406c0 .093.03.175.072.245l-.224.79c-.619.259-1.061.932-1.061 1.73 0 .026.005.052.005.079-1.808.754-3.109 2.727-3.109 5.067 0 .561.094 1.091.232 1.601H.168v.817H0v30.574h309V101.05zm-10.418-6.637c0-.844.217-1.552.513-1.765.293.212.509.921.509 1.765v3.314h-1.022zm-3.024-.352c0-.931.546-1.715 1.293-1.955.743.24 1.291 1.024 1.291 1.955v3.665h-1.959v-.056h-.625zm-1.454.352c0-.844.216-1.552.509-1.765.297.212.512.921.512 1.765v3.257h-1.022zm-51.69-26.43c-.175-.571.645-.543.738-.98.097.437.916.409.738.98-.024.09-.051.16.012.25.057.09.05.16.05.16v.906h-1.593v-.905s-.015-.072.047-.161.039-.16.008-.25zm-26.924-21.027v-1.633c0-.635.372-1.168.88-1.331.506.163.88.696.88 1.331v1.671h-1.761zm-22.18 20.945c0-.845.217-1.552.513-1.766.293.213.509.921.509 1.766v2.602h-1.022zm-2.971 2.543v-2.4c0-.93.547-1.714 1.293-1.954.743.24 1.291 1.024 1.291 1.955V70.5h-2.585zm-1.508-2.543c0-.845.216-1.552.51-1.766.296.213.512.921.512 1.766v2.61h-1.022zm-66.264 0c0-.845.215-1.552.511-1.766.294.213.51.921.51 1.766v2.61h-1.021zm-3.071.144c0-.931.548-1.715 1.291-1.955.747.24 1.294 1.024 1.294 1.955V70.5h-2.585zm-1.408-.144c0-.845.215-1.552.508-1.766.297.213.514.921.514 1.766v2.602h-1.022zM93.544 45.323c0-.635.374-1.168.88-1.331.508.163.88.696.88 1.331v1.671h-1.76zm-26.64 22.66c-.179-.571.641-.543.738-.98.093.437.912.409.738.98-.031.09-.055.16.007.25s.047.16.047.16v.906h-1.592v-.905s-.008-.072.05-.161c.062-.09.036-.16.012-.25zm-51.236 26.43c0-.844.216-1.552.512-1.765.294.212.51.921.51 1.765v3.257h-1.022zm-3.016-.352c0-.931.548-1.715 1.29-1.955.748.24 1.294 1.024 1.294 1.955v3.609h-.625v.056h-1.96zm-1.462.352c0-.844.215-1.552.508-1.765.297.212.514.921.514 1.765v3.314H11.19z" fill="#001732" fill-opacity=".06" fill-rule="evenodd"/>
</svg>
